<mxfile host="app.diagrams.net" agent="Mozilla/5.0 (Windows NT 10.0; Win64; x64) AppleWebKit/537.36 (KHTML, like Gecko) Chrome/132.0.0.0 Safari/537.36" version="26.0.11">
  <diagram name="Page-1" id="cjQhOb8DgeLJBfulrw3r">
    <mxGraphModel dx="819" dy="441" grid="1" gridSize="10" guides="1" tooltips="1" connect="1" arrows="1" fold="1" page="1" pageScale="1" pageWidth="827" pageHeight="1169" math="0" shadow="0">
      <root>
        <mxCell id="0" />
        <mxCell id="1" parent="0" />
        <mxCell id="c-y7IgeTa5z9rGgOpVTy-1" value="Doctor Login" style="html=1;dashed=0;whiteSpace=wrap;shape=mxgraph.dfd.start;fillColor=#d0cee2;strokeColor=#56517e;" vertex="1" parent="1">
          <mxGeometry x="40" y="160" width="80" height="30" as="geometry" />
        </mxCell>
        <mxCell id="c-y7IgeTa5z9rGgOpVTy-2" value="Scan All available appointments" style="html=1;dashed=0;whiteSpace=wrap;fillColor=#dae8fc;strokeColor=#6c8ebf;" vertex="1" parent="1">
          <mxGeometry x="30" y="220" width="100" height="50" as="geometry" />
        </mxCell>
        <mxCell id="c-y7IgeTa5z9rGgOpVTy-8" value="" style="endArrow=classic;html=1;rounded=0;exitX=0.5;exitY=0.5;exitDx=0;exitDy=15;exitPerimeter=0;entryX=0.504;entryY=-0.066;entryDx=0;entryDy=0;entryPerimeter=0;" edge="1" parent="1" source="c-y7IgeTa5z9rGgOpVTy-1" target="c-y7IgeTa5z9rGgOpVTy-2">
          <mxGeometry width="50" height="50" relative="1" as="geometry">
            <mxPoint x="320" y="280" as="sourcePoint" />
            <mxPoint x="370" y="230" as="targetPoint" />
          </mxGeometry>
        </mxCell>
        <mxCell id="c-y7IgeTa5z9rGgOpVTy-35" value="" style="endArrow=classic;html=1;rounded=1;exitX=0.5;exitY=1;exitDx=0;exitDy=0;entryX=0;entryY=0.5;entryDx=0;entryDy=0;curved=0;" edge="1" parent="1" source="c-y7IgeTa5z9rGgOpVTy-2">
          <mxGeometry width="50" height="50" relative="1" as="geometry">
            <mxPoint x="50" y="325" as="sourcePoint" />
            <mxPoint x="130" y="320" as="targetPoint" />
            <Array as="points">
              <mxPoint x="80" y="320" />
            </Array>
          </mxGeometry>
        </mxCell>
        <mxCell id="c-y7IgeTa5z9rGgOpVTy-47" value="&lt;font style=&quot;font-size: 10px;&quot;&gt;Attend Appointment&lt;/font&gt;" style="shape=ellipse;html=1;dashed=0;whiteSpace=wrap;aspect=fixed;perimeter=ellipsePerimeter;fillColor=#ffe6cc;strokeColor=#d79b00;" vertex="1" parent="1">
          <mxGeometry x="130" y="290" width="60" height="60" as="geometry" />
        </mxCell>
        <mxCell id="c-y7IgeTa5z9rGgOpVTy-48" value="&lt;font style=&quot;font-size: 7px;&quot;&gt;Patient Present?&lt;/font&gt;" style="shape=rhombus;html=1;dashed=0;whiteSpace=wrap;perimeter=rhombusPerimeter;fillColor=#f8cecc;strokeColor=#b85450;" vertex="1" parent="1">
          <mxGeometry x="240" y="295" width="60" height="50" as="geometry" />
        </mxCell>
        <mxCell id="c-y7IgeTa5z9rGgOpVTy-49" value="" style="endArrow=classic;html=1;rounded=0;exitX=1;exitY=0.5;exitDx=0;exitDy=0;entryX=0;entryY=0.5;entryDx=0;entryDy=0;" edge="1" parent="1" source="c-y7IgeTa5z9rGgOpVTy-47" target="c-y7IgeTa5z9rGgOpVTy-48">
          <mxGeometry width="50" height="50" relative="1" as="geometry">
            <mxPoint x="260" y="330" as="sourcePoint" />
            <mxPoint x="310" y="280" as="targetPoint" />
          </mxGeometry>
        </mxCell>
        <mxCell id="c-y7IgeTa5z9rGgOpVTy-50" value="" style="endArrow=classic;html=1;rounded=1;exitX=0.5;exitY=0;exitDx=0;exitDy=0;entryX=-0.02;entryY=0.6;entryDx=0;entryDy=0;entryPerimeter=0;curved=0;" edge="1" parent="1" source="c-y7IgeTa5z9rGgOpVTy-48" target="c-y7IgeTa5z9rGgOpVTy-56">
          <mxGeometry width="50" height="50" relative="1" as="geometry">
            <mxPoint x="290" y="270" as="sourcePoint" />
            <mxPoint x="310" y="220" as="targetPoint" />
            <Array as="points">
              <mxPoint x="270" y="240" />
            </Array>
          </mxGeometry>
        </mxCell>
        <mxCell id="c-y7IgeTa5z9rGgOpVTy-51" value="&lt;font style=&quot;font-size: 8px;&quot;&gt;Recommend Future Updates&lt;/font&gt;" style="shape=parallelogram;perimeter=parallelogramPerimeter;whiteSpace=wrap;html=1;dashed=0;fillColor=#d5e8d4;strokeColor=#82b366;" vertex="1" parent="1">
          <mxGeometry x="490" y="210" width="100" height="50" as="geometry" />
        </mxCell>
        <mxCell id="c-y7IgeTa5z9rGgOpVTy-52" value="End" style="shape=ellipse;html=1;dashed=0;whiteSpace=wrap;aspect=fixed;strokeWidth=5;perimeter=ellipsePerimeter;fillColor=#bac8d3;strokeColor=#23445d;" vertex="1" parent="1">
          <mxGeometry x="560" y="360" width="40" height="40" as="geometry" />
        </mxCell>
        <mxCell id="c-y7IgeTa5z9rGgOpVTy-54" value="&lt;font style=&quot;font-size: 8px;&quot;&gt;Attend Next Scheduled Appointment&lt;/font&gt;" style="shape=ellipse;html=1;dashed=0;whiteSpace=wrap;aspect=fixed;perimeter=ellipsePerimeter;fillColor=#ffe6cc;strokeColor=#d79b00;" vertex="1" parent="1">
          <mxGeometry x="240" y="380" width="60" height="60" as="geometry" />
        </mxCell>
        <mxCell id="c-y7IgeTa5z9rGgOpVTy-56" value="Provide Care" style="html=1;dashed=0;whiteSpace=wrap;fillColor=#dae8fc;strokeColor=#6c8ebf;" vertex="1" parent="1">
          <mxGeometry x="360" y="210" width="100" height="50" as="geometry" />
        </mxCell>
        <mxCell id="c-y7IgeTa5z9rGgOpVTy-58" value="" style="endArrow=classic;html=1;rounded=0;exitX=0.5;exitY=1;exitDx=0;exitDy=0;entryX=0.5;entryY=0;entryDx=0;entryDy=0;" edge="1" parent="1" source="c-y7IgeTa5z9rGgOpVTy-48" target="c-y7IgeTa5z9rGgOpVTy-54">
          <mxGeometry width="50" height="50" relative="1" as="geometry">
            <mxPoint x="330" y="350" as="sourcePoint" />
            <mxPoint x="380" y="300" as="targetPoint" />
          </mxGeometry>
        </mxCell>
        <mxCell id="c-y7IgeTa5z9rGgOpVTy-59" value="" style="endArrow=classic;html=1;rounded=0;exitX=1.007;exitY=0.627;exitDx=0;exitDy=0;entryX=0.083;entryY=0.62;entryDx=0;entryDy=0;exitPerimeter=0;entryPerimeter=0;" edge="1" parent="1" source="c-y7IgeTa5z9rGgOpVTy-56" target="c-y7IgeTa5z9rGgOpVTy-51">
          <mxGeometry width="50" height="50" relative="1" as="geometry">
            <mxPoint x="460" y="315" as="sourcePoint" />
            <mxPoint x="460" y="350" as="targetPoint" />
          </mxGeometry>
        </mxCell>
        <mxCell id="c-y7IgeTa5z9rGgOpVTy-60" value="" style="endArrow=classic;html=1;rounded=0;exitX=1;exitY=0.5;exitDx=0;exitDy=0;entryX=0.5;entryY=0;entryDx=0;entryDy=0;" edge="1" parent="1" source="c-y7IgeTa5z9rGgOpVTy-51" target="c-y7IgeTa5z9rGgOpVTy-52">
          <mxGeometry width="50" height="50" relative="1" as="geometry">
            <mxPoint x="540" y="295" as="sourcePoint" />
            <mxPoint x="577" y="295" as="targetPoint" />
          </mxGeometry>
        </mxCell>
        <mxCell id="c-y7IgeTa5z9rGgOpVTy-61" value="&lt;font style=&quot;font-size: 6px;&quot;&gt;All Appointments Finished?&lt;/font&gt;" style="shape=rhombus;html=1;dashed=0;whiteSpace=wrap;perimeter=rhombusPerimeter;fillColor=#f8cecc;strokeColor=#b85450;" vertex="1" parent="1">
          <mxGeometry x="380" y="385" width="60" height="50" as="geometry" />
        </mxCell>
        <mxCell id="c-y7IgeTa5z9rGgOpVTy-62" value="" style="endArrow=classic;html=1;rounded=0;exitX=1;exitY=0.5;exitDx=0;exitDy=0;entryX=0;entryY=0.5;entryDx=0;entryDy=0;" edge="1" parent="1" source="c-y7IgeTa5z9rGgOpVTy-54" target="c-y7IgeTa5z9rGgOpVTy-61">
          <mxGeometry width="50" height="50" relative="1" as="geometry">
            <mxPoint x="280" y="355" as="sourcePoint" />
            <mxPoint x="280" y="390" as="targetPoint" />
          </mxGeometry>
        </mxCell>
        <mxCell id="c-y7IgeTa5z9rGgOpVTy-63" value="" style="endArrow=classic;html=1;rounded=0;exitX=0.5;exitY=0;exitDx=0;exitDy=0;entryX=0.5;entryY=1;entryDx=0;entryDy=0;" edge="1" parent="1" source="c-y7IgeTa5z9rGgOpVTy-61" target="c-y7IgeTa5z9rGgOpVTy-56">
          <mxGeometry width="50" height="50" relative="1" as="geometry">
            <mxPoint x="310" y="420" as="sourcePoint" />
            <mxPoint x="390" y="420" as="targetPoint" />
          </mxGeometry>
        </mxCell>
        <mxCell id="c-y7IgeTa5z9rGgOpVTy-64" value="" style="endArrow=classic;html=1;rounded=1;exitX=0.5;exitY=1;exitDx=0;exitDy=0;curved=0;" edge="1" parent="1" source="c-y7IgeTa5z9rGgOpVTy-61" target="c-y7IgeTa5z9rGgOpVTy-65">
          <mxGeometry width="50" height="50" relative="1" as="geometry">
            <mxPoint x="460" y="485" as="sourcePoint" />
            <mxPoint x="410" y="480" as="targetPoint" />
            <Array as="points">
              <mxPoint x="410" y="460" />
            </Array>
          </mxGeometry>
        </mxCell>
        <mxCell id="c-y7IgeTa5z9rGgOpVTy-65" value="Logout" style="shape=parallelogram;perimeter=parallelogramPerimeter;whiteSpace=wrap;html=1;dashed=0;fillColor=#d5e8d4;strokeColor=#82b366;" vertex="1" parent="1">
          <mxGeometry x="530" y="435" width="100" height="50" as="geometry" />
        </mxCell>
        <mxCell id="c-y7IgeTa5z9rGgOpVTy-66" value="" style="endArrow=classic;html=1;rounded=0;entryX=0.5;entryY=1;entryDx=0;entryDy=0;exitX=0.5;exitY=0;exitDx=0;exitDy=0;" edge="1" parent="1" source="c-y7IgeTa5z9rGgOpVTy-65" target="c-y7IgeTa5z9rGgOpVTy-52">
          <mxGeometry width="50" height="50" relative="1" as="geometry">
            <mxPoint x="460" y="430" as="sourcePoint" />
            <mxPoint x="510" y="380" as="targetPoint" />
          </mxGeometry>
        </mxCell>
        <mxCell id="c-y7IgeTa5z9rGgOpVTy-67" value="&lt;font style=&quot;font-size: 5px;&quot;&gt;Yes&lt;/font&gt;" style="text;strokeColor=none;fillColor=none;html=1;fontSize=24;fontStyle=1;verticalAlign=middle;align=center;" vertex="1" parent="1">
          <mxGeometry x="270" y="220" width="30" height="10" as="geometry" />
        </mxCell>
        <mxCell id="c-y7IgeTa5z9rGgOpVTy-68" value="&lt;font style=&quot;font-size: 5px;&quot;&gt;Yes&lt;/font&gt;" style="text;strokeColor=none;fillColor=none;html=1;fontSize=24;fontStyle=1;verticalAlign=middle;align=center;" vertex="1" parent="1">
          <mxGeometry x="430" y="440" width="30" height="10" as="geometry" />
        </mxCell>
        <mxCell id="c-y7IgeTa5z9rGgOpVTy-69" value="&lt;font style=&quot;font-size: 5px;&quot;&gt;No&lt;/font&gt;" style="text;strokeColor=none;fillColor=none;html=1;fontSize=24;fontStyle=1;verticalAlign=middle;align=center;" vertex="1" parent="1">
          <mxGeometry x="380" y="345" width="30" height="10" as="geometry" />
        </mxCell>
        <mxCell id="c-y7IgeTa5z9rGgOpVTy-71" value="&lt;font style=&quot;font-size: 5px;&quot;&gt;No&lt;/font&gt;" style="text;strokeColor=none;fillColor=none;html=1;fontSize=24;fontStyle=1;verticalAlign=middle;align=center;" vertex="1" parent="1">
          <mxGeometry x="240" y="350" width="30" height="10" as="geometry" />
        </mxCell>
      </root>
    </mxGraphModel>
  </diagram>
</mxfile>
